<svg xmlns="http://www.w3.org/2000/svg" width="24" height="24" viewBox="0 0 24 24"><defs><linearGradient id="8xqxc48y8a" x1="50%" x2="50%" y1="-20.703%" y2="140.976%"><stop offset="0%" stop-color="#FF9C70"></stop><stop offset="100%" stop-color="#F56323"></stop></linearGradient></defs><g fill="none" fill-rule="evenodd"><g fill="url(#8xqxc48y8a)" transform="translate(-1012 -347)"><g><path d="M11.938 5.539C12.942 4.013 15.127 3 17.155 3c3.14 0 5.82 2.487 5.82 5.475 0 0 1.025 5.963-9.96 12.187-.162.092-.593.333-1.015.338-.413.005-.816-.225-.968-.31C-.005 14.455 1.025 8.474 1.025 8.474 1.025 5.487 3.707 3 6.843 3c2.029 0 4.09 1.013 5.095 2.539h.402-.402z" transform="translate(1012 347)"></path></g></g></g></svg>